# xmcd CD database file
#
# Track frame offsets:
#	150
#	13588
#	36978
#	47092
#	63096
#	69232
#	83270
#	99157
#	109842
#	125133
#	135807
#	152996
#	172868
#	182129
#	198178
#	222907
#	244146
#	255288
#	267880
#	281567
#
# Disc length: 4329 seconds
#
# Revision: 0
# Processed by: cddbd v1.5.2PL0 Copyright (c) Steve Scherf et al.
# Submitted via: CDex 1.51
#
DISCID=0510e714
DTITLE=Marylin MONROE - Marylin MONROE
DYEAR=2005
DGENRE=Jazz
TTITLE0=I Wanna Be Loved By You (1959)
TTITLE1=My Heart Belongs To Daddy (1961)
TTITLE2=The River Of No Return (1954)
TTITLE3=Diamond's Are Girl's Best Friend (1953)
TTITLE4=Some Like It Hot (1958)
TTITLE5=A Little Girl From Little Rock (1953)
TTITLE6=Bye Bye Baby (1953)
TTITLE7=There's No Business Like Show Business (1954)
TTITLE8=That Old Back Magic (1959)
TTITLE9=A Fine Romance (1953)
TTITLE10=Lest's Make Love (1961)
TTITLE11=Heat Wave (1954)
TTITLE12=One Silver Dollar (1954)
TTITLE13=Specialization (1961)
TTITLE14=Lazy (1954)
TTITLE15=Incurably Romantic (1961)
TTITLE16=Down In The Meadow (1954)
TTITLE17=She Acts Like A Woman Should (1953)
TTITLE18=Kiss (1952)
TTITLE19=Happy Birthday Mr President (1962)
EXTD=YEAR: 2005
EXTT0=
EXTT1=
EXTT2=
EXTT3=
EXTT4=
EXTT5=
EXTT6=
EXTT7=
EXTT8=
EXTT9=
EXTT10=
EXTT11=
EXTT12=
EXTT13=
EXTT14=
EXTT15=
EXTT16=
EXTT17=
EXTT18=
EXTT19=
PLAYORDER=
